<svg width="250" height="38" viewBox="0 0 250 38" fill="none" xmlns="http://www.w3.org/2000/svg">
<path d="M7.43384 2.65271C10.9774 2.65271 12.7878 3.57713 13.9818 4.57858C15.9454 6.23482 16.5231 8.42952 16.5231 10.3554C16.5231 12.859 15.5225 15.0545 13.5196 16.4018C12.8648 16.864 11.9404 17.2877 10.7078 17.5188L18.7186 28.3414H12.4788L5.62274 18.0196H5.00725V28.3414H0V2.65271H7.43384ZM5.00804 14.4767H6.43239C7.39533 14.4767 11.3618 14.3612 11.3618 10.5873C11.3618 6.77406 7.43306 6.73555 6.50864 6.73555H5.00725V14.4767H5.00804Z" fill="blue"/>
<path d="M37.7852 23.6814C37.2845 24.914 35.3971 28.8813 29.581 28.8813C26.8848 28.8813 24.8442 28.1109 23.1879 26.5317C21.3383 24.7984 20.5687 22.6414 20.5687 20.0231C20.5687 16.7106 21.9168 14.6691 23.1101 13.4751C25.0745 11.5492 27.3847 11.1255 29.3876 11.1255C32.7772 11.1255 34.7415 12.4737 35.8963 13.8603C37.6681 15.9787 37.8992 18.5971 37.8992 20.4074V20.7926H25.4211C25.4211 21.7941 25.6907 22.8725 26.2292 23.6044C26.7299 24.2977 27.7699 25.1836 29.5802 25.1836C31.352 25.1836 32.7001 24.3362 33.4705 22.9881L37.7852 23.6814ZM33.4712 17.7883C33.0861 15.5157 31.2372 14.4373 29.504 14.4373C27.7707 14.4373 25.9604 15.5543 25.5752 17.7883H33.4712Z" fill="blue"/>
<path d="M54.6934 11.6648H59.3926V28.3412H54.6934V26.1843C52.9987 28.6101 50.7647 28.8805 49.5706 28.8805C44.4478 28.8805 41.0591 24.8747 41.0591 19.9837C41.0591 15.0543 44.4101 11.1255 49.3395 11.1255C50.6106 11.1255 53.1142 11.3567 54.6934 13.8218V11.6648ZM45.9123 19.9837C45.9123 22.6414 47.8374 24.7214 50.5336 24.7214C53.2298 24.7214 55.1556 22.6414 55.1556 19.9837C55.1556 17.3268 53.2298 15.2846 50.5336 15.2846C47.8374 15.2846 45.9123 17.3268 45.9123 19.9837Z" fill="blue"/>
<path d="M76.6491 0.264526H81.3482V28.3413H76.6491V26.1843C74.9544 28.6101 72.7204 28.8805 71.5263 28.8805C66.4035 28.8805 63.0148 24.8747 63.0148 19.9838C63.0148 15.0544 66.3658 11.1256 71.2952 11.1256C72.5663 11.1256 75.0699 11.3567 76.6491 13.8218V0.264526ZM67.868 19.9838C67.868 22.6415 69.793 24.7215 72.4893 24.7215C75.1855 24.7215 77.1113 22.6415 77.1113 19.9838C77.1113 17.3269 75.1855 15.2847 72.4893 15.2847C69.793 15.2847 67.868 17.3269 67.868 19.9838Z" fill="blue"/>
<path d="M91.5945 25.8383L83.6599 11.6647H89.1294L94.2899 21.1392L98.9112 11.6647H104.227L90.7848 37.1616H85.4694L91.5945 25.8383Z" fill="blue"/>
<path d="M139.739 15.2847C137.043 15.2847 135.04 17.4032 135.04 20.0224C135.04 22.5637 137.004 24.7215 139.739 24.7215C142.474 24.7215 144.438 22.5645 144.438 20.0224C144.437 17.4032 142.435 15.2847 139.739 15.2847Z" fill="blue"/>
<path d="M123.684 33.717L132.597 37.7354C132.597 37.7354 136.123 36.1459 141.364 33.7822C138.506 32.9128 135.494 32.4514 132.408 32.4514C129.406 32.4522 126.474 32.8916 123.684 33.717Z" fill="blue"/>
<path d="M132.408 6.08917C129.975 6.08917 127.607 6.36901 125.334 6.89489V11.6648H128.569V15.6706H125.334V28.342H120.635V15.6706H118.786V11.6648H120.635V8.38764C113.119 11.4462 107.059 17.341 103.787 24.7473L121.323 32.6536C124.512 31.5876 128.931 30.87 132.408 30.87C135.968 30.87 140.417 31.6325 143.67 32.7447C148.903 30.385 154.567 27.8318 161.092 24.8896C156.271 13.8257 145.245 6.08917 132.408 6.08917ZM146.478 26.5309C145.054 27.8405 142.896 28.8804 139.739 28.8804C136.581 28.8804 134.423 27.8405 132.999 26.5309C131.344 25.0287 130.187 22.7177 130.187 20.0222C130.187 17.2875 131.344 14.9772 132.999 13.4743C134.423 12.1647 136.581 11.1247 139.739 11.1247C142.896 11.1247 145.054 12.1647 146.478 13.4743C148.135 14.9765 149.29 17.2875 149.29 20.0222C149.29 22.7184 148.135 25.0287 146.478 26.5309Z" fill="blue"/>
<path d="M171.88 28.3414H168.105L159.17 2.65267H164.485L170.224 20.138L176.502 2.42157H179.274L185.206 20.138L191.368 2.65267H196.683L187.17 28.3414H183.395L177.772 12.0501L171.88 28.3414Z" fill="blue"/>
<path d="M212.061 13.4751C213.716 14.9773 214.872 17.2883 214.872 20.0231C214.872 22.7193 213.716 25.0295 212.061 26.5317C210.636 27.8413 208.479 28.8813 205.321 28.8813C202.163 28.8813 200.006 27.8413 198.581 26.5317C196.925 25.0295 195.77 22.7185 195.77 20.0231C195.77 17.2883 196.925 14.9781 198.581 13.4751C200.006 12.1655 202.163 11.1255 205.321 11.1255C208.479 11.1255 210.636 12.1655 212.061 13.4751ZM210.019 20.0223C210.019 17.4031 208.016 15.2846 205.32 15.2846C202.624 15.2846 200.621 17.4031 200.621 20.0223C200.621 22.5636 202.586 24.7214 205.32 24.7214C208.055 24.7214 210.019 22.5644 210.019 20.0223Z" fill="blue"/>
<path d="M218.494 11.6648H223.193V14.1684C223.925 12.7433 224.926 12.05 225.273 11.8574C226.005 11.3952 226.929 11.1255 228.046 11.1255C228.854 11.1255 229.509 11.3181 230.049 11.5107L229.433 15.9009C228.817 15.4772 228.2 15.2846 227.237 15.2846C226.351 15.2846 225.042 15.4772 224.117 16.6327C223.232 17.749 223.193 19.1741 223.193 20.3296V28.3404H218.494V11.6648Z" fill="blue"/>
<path d="M237.058 0.264526V17.7498L243.298 11.6649H249.383L241.565 18.9824L249.999 28.3413H243.76L237.558 21.2164L237.058 21.6786V28.3413H232.358V0.264526H237.058Z" fill="blue"/>
</svg>
